<svg id="Layer_1" data-name="Layer 1" xmlns="http://www.w3.org/2000/svg" viewBox="0 0 723.79 1010.5"><defs><style>.cls-1{fill:#6a12cb;}.cls-2{fill:#2674fc;}</style></defs><rect class="cls-1" x="867.95" y="175.16" width="184.07" height="729.08" rx="92.03" transform="translate(762.32 -520.96) rotate(81.98)"/><path class="cls-2" d="M1223.62,170.48a92,92,0,0,1-108.85,71.35h0a95.42,95.42,0,0,0-96.94,37.69L764.89,631.16A92,92,0,1,1,615.47,523.67L939.61,73a92,92,0,0,1,100-34.75c1.52.22,3.06.49,4.6.82l108.1,22.51A92,92,0,0,1,1223.62,170.48Z" transform="translate(-598.1 -34.75)"/><path class="cls-2" d="M1304.58,555.44,980.42,1006.07a91.68,91.68,0,0,1-36.6,30,1.21,1.21,0,0,1-.2.09,91.65,91.65,0,0,1-58.51,7.09L777,1020.79a92,92,0,0,1,37.54-180.21h0a79.48,79.48,0,0,0,80.76-31.4L1155.14,448a92,92,0,0,1,149.44,107.49Z" transform="translate(-598.1 -34.75)"/></svg>